%TF.GenerationSoftware,KiCad,Pcbnew,9.0.1*%
%TF.CreationDate,2025-07-19T21:41:41+00:00*%
%TF.ProjectId,Entwurf1,456e7477-7572-4663-912e-6b696361645f,rev?*%
%TF.SameCoordinates,Original*%
%TF.FileFunction,Paste,Top*%
%TF.FilePolarity,Positive*%
%FSLAX46Y46*%
G04 Gerber Fmt 4.6, Leading zero omitted, Abs format (unit mm)*
G04 Created by KiCad (PCBNEW 9.0.1) date 2025-07-19 21:41:41*
%MOMM*%
%LPD*%
G01*
G04 APERTURE LIST*
G04 Aperture macros list*
%AMRoundRect*
0 Rectangle with rounded corners*
0 $1 Rounding radius*
0 $2 $3 $4 $5 $6 $7 $8 $9 X,Y pos of 4 corners*
0 Add a 4 corners polygon primitive as box body*
4,1,4,$2,$3,$4,$5,$6,$7,$8,$9,$2,$3,0*
0 Add four circle primitives for the rounded corners*
1,1,$1+$1,$2,$3*
1,1,$1+$1,$4,$5*
1,1,$1+$1,$6,$7*
1,1,$1+$1,$8,$9*
0 Add four rect primitives between the rounded corners*
20,1,$1+$1,$2,$3,$4,$5,0*
20,1,$1+$1,$4,$5,$6,$7,0*
20,1,$1+$1,$6,$7,$8,$9,0*
20,1,$1+$1,$8,$9,$2,$3,0*%
G04 Aperture macros list end*
%ADD10RoundRect,0.175000X-0.175000X-0.220000X0.175000X-0.220000X0.175000X0.220000X-0.175000X0.220000X0*%
%ADD11RoundRect,0.100000X-0.625000X-0.100000X0.625000X-0.100000X0.625000X0.100000X-0.625000X0.100000X0*%
%ADD12RoundRect,0.200000X-0.200000X-0.275000X0.200000X-0.275000X0.200000X0.275000X-0.200000X0.275000X0*%
%ADD13RoundRect,0.225000X0.225000X0.250000X-0.225000X0.250000X-0.225000X-0.250000X0.225000X-0.250000X0*%
%ADD14RoundRect,0.200000X0.200000X0.275000X-0.200000X0.275000X-0.200000X-0.275000X0.200000X-0.275000X0*%
%ADD15RoundRect,0.225000X-0.225000X-0.250000X0.225000X-0.250000X0.225000X0.250000X-0.225000X0.250000X0*%
%ADD16RoundRect,0.225000X-0.250000X0.225000X-0.250000X-0.225000X0.250000X-0.225000X0.250000X0.225000X0*%
%ADD17RoundRect,0.200000X0.275000X-0.200000X0.275000X0.200000X-0.275000X0.200000X-0.275000X-0.200000X0*%
%ADD18RoundRect,0.225000X0.250000X-0.225000X0.250000X0.225000X-0.250000X0.225000X-0.250000X-0.225000X0*%
%ADD19RoundRect,0.250000X0.475000X-0.250000X0.475000X0.250000X-0.475000X0.250000X-0.475000X-0.250000X0*%
%ADD20RoundRect,0.200000X-0.275000X0.200000X-0.275000X-0.200000X0.275000X-0.200000X0.275000X0.200000X0*%
%ADD21RoundRect,0.250000X-0.250000X-0.475000X0.250000X-0.475000X0.250000X0.475000X-0.250000X0.475000X0*%
%ADD22RoundRect,0.250000X0.250000X0.475000X-0.250000X0.475000X-0.250000X-0.475000X0.250000X-0.475000X0*%
%ADD23R,1.969999X0.354800*%
%ADD24RoundRect,0.250000X-0.475000X0.250000X-0.475000X-0.250000X0.475000X-0.250000X0.475000X0.250000X0*%
%ADD25R,0.558000X1.969999*%
%ADD26R,1.639799X0.431000*%
%ADD27R,1.800000X1.000000*%
%ADD28RoundRect,0.250000X-0.400000X-0.400000X0.400000X-0.400000X0.400000X0.400000X-0.400000X0.400000X0*%
%ADD29RoundRect,0.250000X-0.750000X-0.400000X0.750000X-0.400000X0.750000X0.400000X-0.750000X0.400000X0*%
%ADD30RoundRect,0.250000X-0.400000X0.400000X-0.400000X-0.400000X0.400000X-0.400000X0.400000X0.400000X0*%
%ADD31RoundRect,0.250000X-0.400000X0.750000X-0.400000X-0.750000X0.400000X-0.750000X0.400000X0.750000X0*%
%ADD32RoundRect,0.250000X-0.550000X1.500000X-0.550000X-1.500000X0.550000X-1.500000X0.550000X1.500000X0*%
%ADD33RoundRect,0.250000X1.500000X0.550000X-1.500000X0.550000X-1.500000X-0.550000X1.500000X-0.550000X0*%
%ADD34RoundRect,0.250000X-1.500000X-0.550000X1.500000X-0.550000X1.500000X0.550000X-1.500000X0.550000X0*%
G04 APERTURE END LIST*
D10*
%TO.C,U1*%
X63720000Y-89175000D03*
X63720000Y-90115000D03*
X64560000Y-89175000D03*
X64560000Y-90115000D03*
D11*
X61990000Y-88670000D03*
X61990000Y-89320000D03*
X61990000Y-89970000D03*
X61990000Y-90620000D03*
X66290000Y-90620000D03*
X66290000Y-89970000D03*
X66290000Y-89320000D03*
X66290000Y-88670000D03*
%TD*%
D12*
%TO.C,Rin5*%
X68265000Y-79170000D03*
X69915000Y-79170000D03*
%TD*%
D13*
%TO.C,Cf8*%
X59665000Y-104270000D03*
X58115000Y-104270000D03*
%TD*%
D14*
%TO.C,R20*%
X63240000Y-145610000D03*
X61590000Y-145610000D03*
%TD*%
D13*
%TO.C,Cf6*%
X59625000Y-95270000D03*
X58075000Y-95270000D03*
%TD*%
%TO.C,Cby9*%
X67890000Y-87170000D03*
X66340000Y-87170000D03*
%TD*%
D12*
%TO.C,Rif21*%
X81525000Y-131170000D03*
X83175000Y-131170000D03*
%TD*%
%TO.C,Rif1*%
X90710000Y-131180000D03*
X92360000Y-131180000D03*
%TD*%
D15*
%TO.C,Cby22*%
X52260000Y-144130000D03*
X53810000Y-144130000D03*
%TD*%
D16*
%TO.C,Cf3*%
X74390000Y-101695000D03*
X74390000Y-103245000D03*
%TD*%
D12*
%TO.C,Rf9*%
X61065000Y-104270000D03*
X62715000Y-104270000D03*
%TD*%
D17*
%TO.C,Rif16*%
X89770000Y-118730000D03*
X89770000Y-117080000D03*
%TD*%
D18*
%TO.C,Cf1*%
X72380000Y-94775000D03*
X72380000Y-93225000D03*
%TD*%
D12*
%TO.C,Rif25*%
X87825000Y-137950000D03*
X89475000Y-137950000D03*
%TD*%
%TO.C,Rif17*%
X87825000Y-142270000D03*
X89475000Y-142270000D03*
%TD*%
D17*
%TO.C,Rif4*%
X91920000Y-112792500D03*
X91920000Y-111142500D03*
%TD*%
D19*
%TO.C,Cby23*%
X55720000Y-146040000D03*
X55720000Y-144140000D03*
%TD*%
D14*
%TO.C,Rin2*%
X60315000Y-78270000D03*
X58665000Y-78270000D03*
%TD*%
D20*
%TO.C,Rf2*%
X70920000Y-91755000D03*
X70920000Y-93405000D03*
%TD*%
D14*
%TO.C,Rif13*%
X42865000Y-130180000D03*
X41215000Y-130180000D03*
%TD*%
D16*
%TO.C,Cby10*%
X59700000Y-92200000D03*
X59700000Y-93750000D03*
%TD*%
D17*
%TO.C,Rpu2*%
X63300000Y-143095000D03*
X63300000Y-141445000D03*
%TD*%
D14*
%TO.C,Rf6*%
X62635000Y-95270000D03*
X60985000Y-95270000D03*
%TD*%
D17*
%TO.C,Rif9*%
X38600000Y-81985000D03*
X38600000Y-80335000D03*
%TD*%
D21*
%TO.C,Cby4*%
X73700000Y-112080000D03*
X75600000Y-112080000D03*
%TD*%
D17*
%TO.C,Rpu12*%
X75280000Y-143115000D03*
X75280000Y-141465000D03*
%TD*%
D12*
%TO.C,R18*%
X57410000Y-149230000D03*
X59060000Y-149230000D03*
%TD*%
D20*
%TO.C,Rf1*%
X72380000Y-90215000D03*
X72380000Y-91865000D03*
%TD*%
D17*
%TO.C,Rpu8*%
X72300000Y-143120000D03*
X72300000Y-141470000D03*
%TD*%
%TO.C,Rpu11*%
X78240000Y-143105000D03*
X78240000Y-141455000D03*
%TD*%
D15*
%TO.C,Cf9*%
X64315000Y-104270000D03*
X65865000Y-104270000D03*
%TD*%
D22*
%TO.C,Cby2*%
X63086200Y-109922500D03*
X61186200Y-109922500D03*
%TD*%
D23*
%TO.C,U4*%
X50298800Y-147252500D03*
X50298800Y-146617500D03*
X50298800Y-145982500D03*
X50298800Y-145347500D03*
X50298800Y-144712500D03*
X50298800Y-144077500D03*
X50298800Y-143442500D03*
X50298800Y-142807500D03*
X45371200Y-142807500D03*
X45371200Y-143442500D03*
X45371200Y-144077500D03*
X45371200Y-144712500D03*
X45371200Y-145347500D03*
X45371200Y-145982500D03*
X45371200Y-146617500D03*
X45371200Y-147252500D03*
%TD*%
D17*
%TO.C,Rpu14*%
X60340000Y-143105000D03*
X60340000Y-141455000D03*
%TD*%
D12*
%TO.C,Rin3*%
X58690000Y-79770000D03*
X60340000Y-79770000D03*
%TD*%
D14*
%TO.C,Rif28*%
X42140000Y-134230000D03*
X40490000Y-134230000D03*
%TD*%
D24*
%TO.C,Cby7*%
X59236200Y-116672500D03*
X59236200Y-118572500D03*
%TD*%
D25*
%TO.C,U3*%
X63495000Y-97306200D03*
X62225000Y-97306200D03*
X60955000Y-97306200D03*
X59685000Y-97306200D03*
X59685000Y-102233800D03*
X60955000Y-102233800D03*
X62225000Y-102233800D03*
X63495000Y-102233800D03*
%TD*%
D12*
%TO.C,Rref3*%
X57511200Y-115122500D03*
X59161200Y-115122500D03*
%TD*%
D16*
%TO.C,Cby16*%
X73080000Y-105145000D03*
X73080000Y-106695000D03*
%TD*%
D14*
%TO.C,Rf5*%
X65585000Y-93800000D03*
X63935000Y-93800000D03*
%TD*%
D18*
%TO.C,Cby25*%
X70800000Y-107375000D03*
X70800000Y-105825000D03*
%TD*%
D16*
%TO.C,Cby11*%
X58200000Y-92200000D03*
X58200000Y-93750000D03*
%TD*%
D17*
%TO.C,Rif8*%
X38610000Y-73070000D03*
X38610000Y-71420000D03*
%TD*%
%TO.C,Rpu13*%
X58840000Y-143130000D03*
X58840000Y-141480000D03*
%TD*%
D14*
%TO.C,Rf4*%
X70590000Y-103870000D03*
X68940000Y-103870000D03*
%TD*%
D17*
%TO.C,Rif24*%
X88850000Y-126085000D03*
X88850000Y-124435000D03*
%TD*%
D20*
%TO.C,Rf3*%
X74390000Y-98445000D03*
X74390000Y-100095000D03*
%TD*%
D17*
%TO.C,Rif7*%
X38600000Y-76070000D03*
X38600000Y-74420000D03*
%TD*%
D16*
%TO.C,Cby28*%
X48535000Y-148555000D03*
X48535000Y-150105000D03*
%TD*%
D17*
%TO.C,Rif15*%
X89770000Y-121690000D03*
X89770000Y-120040000D03*
%TD*%
D14*
%TO.C,Rif11*%
X42965000Y-127360000D03*
X41315000Y-127360000D03*
%TD*%
D17*
%TO.C,Rpu6*%
X70820000Y-143120000D03*
X70820000Y-141470000D03*
%TD*%
D24*
%TO.C,Cby1*%
X61236200Y-113672500D03*
X61236200Y-115572500D03*
%TD*%
D14*
%TO.C,Rif26*%
X89475000Y-139410000D03*
X87825000Y-139410000D03*
%TD*%
D17*
%TO.C,Rif6*%
X91920000Y-106840000D03*
X91920000Y-105190000D03*
%TD*%
%TO.C,Rpu9*%
X76760000Y-143115000D03*
X76760000Y-141465000D03*
%TD*%
D14*
%TO.C,Rif2*%
X92360000Y-132640000D03*
X90710000Y-132640000D03*
%TD*%
D12*
%TO.C,Rin4*%
X61690000Y-79770000D03*
X63340000Y-79770000D03*
%TD*%
D14*
%TO.C,Rref2*%
X59261200Y-112122500D03*
X57611200Y-112122500D03*
%TD*%
D19*
%TO.C,Cby24*%
X69000000Y-107350000D03*
X69000000Y-105450000D03*
%TD*%
D22*
%TO.C,Cby5*%
X75780000Y-114040000D03*
X73880000Y-114040000D03*
%TD*%
D17*
%TO.C,Roff2*%
X77200000Y-101500000D03*
X77200000Y-99850000D03*
%TD*%
D23*
%TO.C,ADC1*%
X66172400Y-109395000D03*
X66172400Y-110030000D03*
X66172400Y-110665000D03*
X66172400Y-111300000D03*
X66172400Y-111935000D03*
X66172400Y-112570000D03*
X66172400Y-113205000D03*
X66172400Y-113840000D03*
X66172400Y-114475000D03*
X66172400Y-115110000D03*
X66172400Y-115745000D03*
X66172400Y-116380000D03*
X66172400Y-117015000D03*
X66172400Y-117650000D03*
X71100000Y-117650000D03*
X71100000Y-117015000D03*
X71100000Y-116380000D03*
X71100000Y-115745000D03*
X71100000Y-115110000D03*
X71100000Y-114475000D03*
X71100000Y-113840000D03*
X71100000Y-113205000D03*
X71100000Y-112570000D03*
X71100000Y-111935000D03*
X71100000Y-111300000D03*
X71100000Y-110665000D03*
X71100000Y-110030000D03*
X71100000Y-109395000D03*
%TD*%
D20*
%TO.C,Roff1*%
X79500000Y-99850000D03*
X79500000Y-101500000D03*
%TD*%
D26*
%TO.C,DAC1*%
X48504000Y-110346180D03*
X48504000Y-110996420D03*
X48504000Y-111646660D03*
X48504000Y-112296900D03*
X48504000Y-112947140D03*
X48504000Y-113597380D03*
X48504000Y-114247620D03*
X48504000Y-114897860D03*
X48504000Y-115548100D03*
X48504000Y-116198340D03*
X48504000Y-116848580D03*
X48504000Y-117498820D03*
X55768400Y-117498820D03*
X55768400Y-116848580D03*
X55768400Y-116198340D03*
X55768400Y-115548100D03*
X55768400Y-114897860D03*
X55768400Y-114247620D03*
X55768400Y-113597380D03*
X55768400Y-112947140D03*
X55768400Y-112296900D03*
X55768400Y-111646660D03*
X55768400Y-110996420D03*
X55768400Y-110346180D03*
%TD*%
D24*
%TO.C,Cby3*%
X63560000Y-114020000D03*
X63560000Y-115920000D03*
%TD*%
D27*
%TO.C,CTrim1*%
X65790000Y-79170000D03*
X65790000Y-82570000D03*
%TD*%
D14*
%TO.C,Rf7*%
X58065000Y-99310000D03*
X56415000Y-99310000D03*
%TD*%
D12*
%TO.C,Rf8*%
X56505000Y-102250000D03*
X58155000Y-102250000D03*
%TD*%
D21*
%TO.C,Cby21*%
X53260000Y-142380000D03*
X55160000Y-142380000D03*
%TD*%
D17*
%TO.C,Rif10*%
X38600000Y-79025000D03*
X38600000Y-77375000D03*
%TD*%
D28*
%TO.C,RVoff1*%
X79900000Y-103060000D03*
D29*
X78750000Y-108560000D03*
D28*
X77600000Y-103060000D03*
%TD*%
D14*
%TO.C,Rif18*%
X89475000Y-143730000D03*
X87825000Y-143730000D03*
%TD*%
D13*
%TO.C,Cf4*%
X67165000Y-102070000D03*
X65615000Y-102070000D03*
%TD*%
D14*
%TO.C,R19*%
X66240000Y-145610000D03*
X64590000Y-145610000D03*
%TD*%
D30*
%TO.C,RV2*%
X55785000Y-151580000D03*
D31*
X50285000Y-150430000D03*
D30*
X55785000Y-149280000D03*
%TD*%
D14*
%TO.C,Rif14*%
X39905000Y-130180000D03*
X38255000Y-130180000D03*
%TD*%
D17*
%TO.C,Rpu1*%
X61800000Y-143095000D03*
X61800000Y-141445000D03*
%TD*%
D19*
%TO.C,Cby27*%
X51035000Y-141280000D03*
X51035000Y-139380000D03*
%TD*%
D18*
%TO.C,Cby26*%
X49235000Y-141105000D03*
X49235000Y-139555000D03*
%TD*%
D15*
%TO.C,Cby20*%
X52360000Y-145630000D03*
X53910000Y-145630000D03*
%TD*%
D17*
%TO.C,Rpu7*%
X69310000Y-143130000D03*
X69310000Y-141480000D03*
%TD*%
D16*
%TO.C,Ccoup1*%
X57490000Y-83870000D03*
X57490000Y-85420000D03*
%TD*%
D14*
%TO.C,Rif20*%
X90345000Y-136490000D03*
X88695000Y-136490000D03*
%TD*%
D13*
%TO.C,Cby8*%
X67865000Y-85570000D03*
X66315000Y-85570000D03*
%TD*%
D15*
%TO.C,Cf7*%
X56555000Y-100790000D03*
X58105000Y-100790000D03*
%TD*%
D20*
%TO.C,Rif3*%
X89630000Y-108985000D03*
X89630000Y-110635000D03*
%TD*%
D13*
%TO.C,Cf2*%
X70165000Y-94820000D03*
X68615000Y-94820000D03*
%TD*%
D24*
%TO.C,Cby17*%
X74790000Y-105120000D03*
X74790000Y-107020000D03*
%TD*%
D17*
%TO.C,Rpu3*%
X64800000Y-143095000D03*
X64800000Y-141445000D03*
%TD*%
%TO.C,Rif5*%
X91920000Y-109810000D03*
X91920000Y-108160000D03*
%TD*%
D13*
%TO.C,Cf5*%
X65545000Y-95270000D03*
X63995000Y-95270000D03*
%TD*%
D17*
%TO.C,Rif23*%
X84580000Y-130145000D03*
X84580000Y-128495000D03*
%TD*%
%TO.C,Rpu4*%
X66300000Y-143120000D03*
X66300000Y-141470000D03*
%TD*%
D12*
%TO.C,Rif19*%
X88685000Y-135030000D03*
X90335000Y-135030000D03*
%TD*%
D17*
%TO.C,Rpu10*%
X73760000Y-143115000D03*
X73760000Y-141465000D03*
%TD*%
D14*
%TO.C,Rif22*%
X83175000Y-132630000D03*
X81525000Y-132630000D03*
%TD*%
%TO.C,R17*%
X59060000Y-151630000D03*
X57410000Y-151630000D03*
%TD*%
%TO.C,Rref1*%
X62261200Y-112122500D03*
X60611200Y-112122500D03*
%TD*%
%TO.C,Rif27*%
X45095000Y-134230000D03*
X43445000Y-134230000D03*
%TD*%
D15*
%TO.C,Cby6*%
X57636200Y-113622500D03*
X59186200Y-113622500D03*
%TD*%
D16*
%TO.C,Cin1*%
X63190000Y-81295000D03*
X63190000Y-82845000D03*
%TD*%
D25*
%TO.C,U2*%
X72695000Y-96806200D03*
X71425000Y-96806200D03*
X70155000Y-96806200D03*
X68885000Y-96806200D03*
X68885000Y-101733800D03*
X70155000Y-101733800D03*
X71425000Y-101733800D03*
X72695000Y-101733800D03*
%TD*%
D24*
%TO.C,Cby29*%
X46735000Y-148580000D03*
X46735000Y-150480000D03*
%TD*%
D14*
%TO.C,Rin1*%
X63340000Y-78270000D03*
X61690000Y-78270000D03*
%TD*%
D17*
%TO.C,Rpu5*%
X67800000Y-143120000D03*
X67800000Y-141470000D03*
%TD*%
D14*
%TO.C,Rif12*%
X40005000Y-127360000D03*
X38355000Y-127360000D03*
%TD*%
D32*
%TO.C,C1*%
X81300000Y-123200000D03*
X81300000Y-117800000D03*
%TD*%
%TO.C,C2*%
X89300000Y-103600000D03*
X89300000Y-98200000D03*
%TD*%
D33*
%TO.C,C3*%
X78100000Y-72800000D03*
X83500000Y-72800000D03*
%TD*%
D34*
%TO.C,C4*%
X83900000Y-79900000D03*
X78500000Y-79900000D03*
%TD*%
D32*
%TO.C,C5*%
X42000000Y-90100000D03*
X42000000Y-84700000D03*
%TD*%
M02*
