%TF.GenerationSoftware,KiCad,Pcbnew,9.0.1*%
%TF.CreationDate,2025-07-19T21:41:41+00:00*%
%TF.ProjectId,Entwurf1,456e7477-7572-4663-912e-6b696361645f,rev?*%
%TF.SameCoordinates,Original*%
%TF.FileFunction,Legend,Bot*%
%TF.FilePolarity,Positive*%
%FSLAX46Y46*%
G04 Gerber Fmt 4.6, Leading zero omitted, Abs format (unit mm)*
G04 Created by KiCad (PCBNEW 9.0.1) date 2025-07-19 21:41:41*
%MOMM*%
%LPD*%
G01*
G04 APERTURE LIST*
%ADD10C,0.150000*%
%ADD11C,0.120000*%
G04 APERTURE END LIST*
D10*
X89034819Y-108151905D02*
X88034819Y-108151905D01*
X88034819Y-108151905D02*
X88034819Y-108390000D01*
X88034819Y-108390000D02*
X88082438Y-108532857D01*
X88082438Y-108532857D02*
X88177676Y-108628095D01*
X88177676Y-108628095D02*
X88272914Y-108675714D01*
X88272914Y-108675714D02*
X88463390Y-108723333D01*
X88463390Y-108723333D02*
X88606247Y-108723333D01*
X88606247Y-108723333D02*
X88796723Y-108675714D01*
X88796723Y-108675714D02*
X88891961Y-108628095D01*
X88891961Y-108628095D02*
X88987200Y-108532857D01*
X88987200Y-108532857D02*
X89034819Y-108390000D01*
X89034819Y-108390000D02*
X89034819Y-108151905D01*
X88130057Y-109104286D02*
X88082438Y-109151905D01*
X88082438Y-109151905D02*
X88034819Y-109247143D01*
X88034819Y-109247143D02*
X88034819Y-109485238D01*
X88034819Y-109485238D02*
X88082438Y-109580476D01*
X88082438Y-109580476D02*
X88130057Y-109628095D01*
X88130057Y-109628095D02*
X88225295Y-109675714D01*
X88225295Y-109675714D02*
X88320533Y-109675714D01*
X88320533Y-109675714D02*
X88463390Y-109628095D01*
X88463390Y-109628095D02*
X89034819Y-109056667D01*
X89034819Y-109056667D02*
X89034819Y-109675714D01*
X56716190Y-95129580D02*
X56763809Y-95177200D01*
X56763809Y-95177200D02*
X56906666Y-95224819D01*
X56906666Y-95224819D02*
X57001904Y-95224819D01*
X57001904Y-95224819D02*
X57144761Y-95177200D01*
X57144761Y-95177200D02*
X57239999Y-95081961D01*
X57239999Y-95081961D02*
X57287618Y-94986723D01*
X57287618Y-94986723D02*
X57335237Y-94796247D01*
X57335237Y-94796247D02*
X57335237Y-94653390D01*
X57335237Y-94653390D02*
X57287618Y-94462914D01*
X57287618Y-94462914D02*
X57239999Y-94367676D01*
X57239999Y-94367676D02*
X57144761Y-94272438D01*
X57144761Y-94272438D02*
X57001904Y-94224819D01*
X57001904Y-94224819D02*
X56906666Y-94224819D01*
X56906666Y-94224819D02*
X56763809Y-94272438D01*
X56763809Y-94272438D02*
X56716190Y-94320057D01*
X56287618Y-95224819D02*
X56287618Y-94224819D01*
X56287618Y-94605771D02*
X56192380Y-94558152D01*
X56192380Y-94558152D02*
X56001904Y-94558152D01*
X56001904Y-94558152D02*
X55906666Y-94605771D01*
X55906666Y-94605771D02*
X55859047Y-94653390D01*
X55859047Y-94653390D02*
X55811428Y-94748628D01*
X55811428Y-94748628D02*
X55811428Y-95034342D01*
X55811428Y-95034342D02*
X55859047Y-95129580D01*
X55859047Y-95129580D02*
X55906666Y-95177200D01*
X55906666Y-95177200D02*
X56001904Y-95224819D01*
X56001904Y-95224819D02*
X56192380Y-95224819D01*
X56192380Y-95224819D02*
X56287618Y-95177200D01*
X55478094Y-94558152D02*
X55239999Y-95224819D01*
X55001904Y-94558152D02*
X55239999Y-95224819D01*
X55239999Y-95224819D02*
X55335237Y-95462914D01*
X55335237Y-95462914D02*
X55382856Y-95510533D01*
X55382856Y-95510533D02*
X55478094Y-95558152D01*
X54097142Y-95224819D02*
X54668570Y-95224819D01*
X54382856Y-95224819D02*
X54382856Y-94224819D01*
X54382856Y-94224819D02*
X54478094Y-94367676D01*
X54478094Y-94367676D02*
X54573332Y-94462914D01*
X54573332Y-94462914D02*
X54668570Y-94510533D01*
X53192380Y-94224819D02*
X53668570Y-94224819D01*
X53668570Y-94224819D02*
X53716189Y-94701009D01*
X53716189Y-94701009D02*
X53668570Y-94653390D01*
X53668570Y-94653390D02*
X53573332Y-94605771D01*
X53573332Y-94605771D02*
X53335237Y-94605771D01*
X53335237Y-94605771D02*
X53239999Y-94653390D01*
X53239999Y-94653390D02*
X53192380Y-94701009D01*
X53192380Y-94701009D02*
X53144761Y-94796247D01*
X53144761Y-94796247D02*
X53144761Y-95034342D01*
X53144761Y-95034342D02*
X53192380Y-95129580D01*
X53192380Y-95129580D02*
X53239999Y-95177200D01*
X53239999Y-95177200D02*
X53335237Y-95224819D01*
X53335237Y-95224819D02*
X53573332Y-95224819D01*
X53573332Y-95224819D02*
X53668570Y-95177200D01*
X53668570Y-95177200D02*
X53716189Y-95129580D01*
X60029580Y-102133809D02*
X60077200Y-102086190D01*
X60077200Y-102086190D02*
X60124819Y-101943333D01*
X60124819Y-101943333D02*
X60124819Y-101848095D01*
X60124819Y-101848095D02*
X60077200Y-101705238D01*
X60077200Y-101705238D02*
X59981961Y-101610000D01*
X59981961Y-101610000D02*
X59886723Y-101562381D01*
X59886723Y-101562381D02*
X59696247Y-101514762D01*
X59696247Y-101514762D02*
X59553390Y-101514762D01*
X59553390Y-101514762D02*
X59362914Y-101562381D01*
X59362914Y-101562381D02*
X59267676Y-101610000D01*
X59267676Y-101610000D02*
X59172438Y-101705238D01*
X59172438Y-101705238D02*
X59124819Y-101848095D01*
X59124819Y-101848095D02*
X59124819Y-101943333D01*
X59124819Y-101943333D02*
X59172438Y-102086190D01*
X59172438Y-102086190D02*
X59220057Y-102133809D01*
X60124819Y-102562381D02*
X59124819Y-102562381D01*
X59505771Y-102562381D02*
X59458152Y-102657619D01*
X59458152Y-102657619D02*
X59458152Y-102848095D01*
X59458152Y-102848095D02*
X59505771Y-102943333D01*
X59505771Y-102943333D02*
X59553390Y-102990952D01*
X59553390Y-102990952D02*
X59648628Y-103038571D01*
X59648628Y-103038571D02*
X59934342Y-103038571D01*
X59934342Y-103038571D02*
X60029580Y-102990952D01*
X60029580Y-102990952D02*
X60077200Y-102943333D01*
X60077200Y-102943333D02*
X60124819Y-102848095D01*
X60124819Y-102848095D02*
X60124819Y-102657619D01*
X60124819Y-102657619D02*
X60077200Y-102562381D01*
X59458152Y-103371905D02*
X60124819Y-103610000D01*
X59458152Y-103848095D02*
X60124819Y-103610000D01*
X60124819Y-103610000D02*
X60362914Y-103514762D01*
X60362914Y-103514762D02*
X60410533Y-103467143D01*
X60410533Y-103467143D02*
X60458152Y-103371905D01*
X60124819Y-104752857D02*
X60124819Y-104181429D01*
X60124819Y-104467143D02*
X59124819Y-104467143D01*
X59124819Y-104467143D02*
X59267676Y-104371905D01*
X59267676Y-104371905D02*
X59362914Y-104276667D01*
X59362914Y-104276667D02*
X59410533Y-104181429D01*
X59220057Y-105133810D02*
X59172438Y-105181429D01*
X59172438Y-105181429D02*
X59124819Y-105276667D01*
X59124819Y-105276667D02*
X59124819Y-105514762D01*
X59124819Y-105514762D02*
X59172438Y-105610000D01*
X59172438Y-105610000D02*
X59220057Y-105657619D01*
X59220057Y-105657619D02*
X59315295Y-105705238D01*
X59315295Y-105705238D02*
X59410533Y-105705238D01*
X59410533Y-105705238D02*
X59553390Y-105657619D01*
X59553390Y-105657619D02*
X60124819Y-105086191D01*
X60124819Y-105086191D02*
X60124819Y-105705238D01*
X45304762Y-146474819D02*
X45638095Y-145998628D01*
X45876190Y-146474819D02*
X45876190Y-145474819D01*
X45876190Y-145474819D02*
X45495238Y-145474819D01*
X45495238Y-145474819D02*
X45400000Y-145522438D01*
X45400000Y-145522438D02*
X45352381Y-145570057D01*
X45352381Y-145570057D02*
X45304762Y-145665295D01*
X45304762Y-145665295D02*
X45304762Y-145808152D01*
X45304762Y-145808152D02*
X45352381Y-145903390D01*
X45352381Y-145903390D02*
X45400000Y-145951009D01*
X45400000Y-145951009D02*
X45495238Y-145998628D01*
X45495238Y-145998628D02*
X45876190Y-145998628D01*
X44876190Y-146474819D02*
X44876190Y-145474819D01*
X44447619Y-146474819D02*
X44447619Y-145951009D01*
X44447619Y-145951009D02*
X44495238Y-145855771D01*
X44495238Y-145855771D02*
X44590476Y-145808152D01*
X44590476Y-145808152D02*
X44733333Y-145808152D01*
X44733333Y-145808152D02*
X44828571Y-145855771D01*
X44828571Y-145855771D02*
X44876190Y-145903390D01*
X44066666Y-145808152D02*
X43828571Y-146474819D01*
X43590476Y-145808152D02*
X43828571Y-146474819D01*
X43828571Y-146474819D02*
X43923809Y-146712914D01*
X43923809Y-146712914D02*
X43971428Y-146760533D01*
X43971428Y-146760533D02*
X44066666Y-146808152D01*
X43257142Y-146427200D02*
X43161904Y-146474819D01*
X43161904Y-146474819D02*
X42971428Y-146474819D01*
X42971428Y-146474819D02*
X42876190Y-146427200D01*
X42876190Y-146427200D02*
X42828571Y-146331961D01*
X42828571Y-146331961D02*
X42828571Y-146284342D01*
X42828571Y-146284342D02*
X42876190Y-146189104D01*
X42876190Y-146189104D02*
X42971428Y-146141485D01*
X42971428Y-146141485D02*
X43114285Y-146141485D01*
X43114285Y-146141485D02*
X43209523Y-146093866D01*
X43209523Y-146093866D02*
X43257142Y-145998628D01*
X43257142Y-145998628D02*
X43257142Y-145951009D01*
X43257142Y-145951009D02*
X43209523Y-145855771D01*
X43209523Y-145855771D02*
X43114285Y-145808152D01*
X43114285Y-145808152D02*
X42971428Y-145808152D01*
X42971428Y-145808152D02*
X42876190Y-145855771D01*
X42447618Y-145570057D02*
X42399999Y-145522438D01*
X42399999Y-145522438D02*
X42304761Y-145474819D01*
X42304761Y-145474819D02*
X42066666Y-145474819D01*
X42066666Y-145474819D02*
X41971428Y-145522438D01*
X41971428Y-145522438D02*
X41923809Y-145570057D01*
X41923809Y-145570057D02*
X41876190Y-145665295D01*
X41876190Y-145665295D02*
X41876190Y-145760533D01*
X41876190Y-145760533D02*
X41923809Y-145903390D01*
X41923809Y-145903390D02*
X42495237Y-146474819D01*
X42495237Y-146474819D02*
X41876190Y-146474819D01*
X83804819Y-119684405D02*
X82804819Y-119684405D01*
X82804819Y-119684405D02*
X82804819Y-119922500D01*
X82804819Y-119922500D02*
X82852438Y-120065357D01*
X82852438Y-120065357D02*
X82947676Y-120160595D01*
X82947676Y-120160595D02*
X83042914Y-120208214D01*
X83042914Y-120208214D02*
X83233390Y-120255833D01*
X83233390Y-120255833D02*
X83376247Y-120255833D01*
X83376247Y-120255833D02*
X83566723Y-120208214D01*
X83566723Y-120208214D02*
X83661961Y-120160595D01*
X83661961Y-120160595D02*
X83757200Y-120065357D01*
X83757200Y-120065357D02*
X83804819Y-119922500D01*
X83804819Y-119922500D02*
X83804819Y-119684405D01*
X83804819Y-121208214D02*
X83804819Y-120636786D01*
X83804819Y-120922500D02*
X82804819Y-120922500D01*
X82804819Y-120922500D02*
X82947676Y-120827262D01*
X82947676Y-120827262D02*
X83042914Y-120732024D01*
X83042914Y-120732024D02*
X83090533Y-120636786D01*
X90934819Y-79889405D02*
X89934819Y-79889405D01*
X89934819Y-79889405D02*
X89934819Y-80127500D01*
X89934819Y-80127500D02*
X89982438Y-80270357D01*
X89982438Y-80270357D02*
X90077676Y-80365595D01*
X90077676Y-80365595D02*
X90172914Y-80413214D01*
X90172914Y-80413214D02*
X90363390Y-80460833D01*
X90363390Y-80460833D02*
X90506247Y-80460833D01*
X90506247Y-80460833D02*
X90696723Y-80413214D01*
X90696723Y-80413214D02*
X90791961Y-80365595D01*
X90791961Y-80365595D02*
X90887200Y-80270357D01*
X90887200Y-80270357D02*
X90934819Y-80127500D01*
X90934819Y-80127500D02*
X90934819Y-79889405D01*
X90268152Y-81317976D02*
X90934819Y-81317976D01*
X89887200Y-81079881D02*
X90601485Y-80841786D01*
X90601485Y-80841786D02*
X90601485Y-81460833D01*
X45554762Y-144484819D02*
X45888095Y-144008628D01*
X46126190Y-144484819D02*
X46126190Y-143484819D01*
X46126190Y-143484819D02*
X45745238Y-143484819D01*
X45745238Y-143484819D02*
X45650000Y-143532438D01*
X45650000Y-143532438D02*
X45602381Y-143580057D01*
X45602381Y-143580057D02*
X45554762Y-143675295D01*
X45554762Y-143675295D02*
X45554762Y-143818152D01*
X45554762Y-143818152D02*
X45602381Y-143913390D01*
X45602381Y-143913390D02*
X45650000Y-143961009D01*
X45650000Y-143961009D02*
X45745238Y-144008628D01*
X45745238Y-144008628D02*
X46126190Y-144008628D01*
X45126190Y-144484819D02*
X45126190Y-143484819D01*
X44697619Y-144484819D02*
X44697619Y-143961009D01*
X44697619Y-143961009D02*
X44745238Y-143865771D01*
X44745238Y-143865771D02*
X44840476Y-143818152D01*
X44840476Y-143818152D02*
X44983333Y-143818152D01*
X44983333Y-143818152D02*
X45078571Y-143865771D01*
X45078571Y-143865771D02*
X45126190Y-143913390D01*
X44316666Y-143818152D02*
X44078571Y-144484819D01*
X43840476Y-143818152D02*
X44078571Y-144484819D01*
X44078571Y-144484819D02*
X44173809Y-144722914D01*
X44173809Y-144722914D02*
X44221428Y-144770533D01*
X44221428Y-144770533D02*
X44316666Y-144818152D01*
X43507142Y-144437200D02*
X43411904Y-144484819D01*
X43411904Y-144484819D02*
X43221428Y-144484819D01*
X43221428Y-144484819D02*
X43126190Y-144437200D01*
X43126190Y-144437200D02*
X43078571Y-144341961D01*
X43078571Y-144341961D02*
X43078571Y-144294342D01*
X43078571Y-144294342D02*
X43126190Y-144199104D01*
X43126190Y-144199104D02*
X43221428Y-144151485D01*
X43221428Y-144151485D02*
X43364285Y-144151485D01*
X43364285Y-144151485D02*
X43459523Y-144103866D01*
X43459523Y-144103866D02*
X43507142Y-144008628D01*
X43507142Y-144008628D02*
X43507142Y-143961009D01*
X43507142Y-143961009D02*
X43459523Y-143865771D01*
X43459523Y-143865771D02*
X43364285Y-143818152D01*
X43364285Y-143818152D02*
X43221428Y-143818152D01*
X43221428Y-143818152D02*
X43126190Y-143865771D01*
X42221428Y-143818152D02*
X42221428Y-144484819D01*
X42459523Y-143437200D02*
X42697618Y-144151485D01*
X42697618Y-144151485D02*
X42078571Y-144151485D01*
X52534762Y-142754819D02*
X52868095Y-142278628D01*
X53106190Y-142754819D02*
X53106190Y-141754819D01*
X53106190Y-141754819D02*
X52725238Y-141754819D01*
X52725238Y-141754819D02*
X52630000Y-141802438D01*
X52630000Y-141802438D02*
X52582381Y-141850057D01*
X52582381Y-141850057D02*
X52534762Y-141945295D01*
X52534762Y-141945295D02*
X52534762Y-142088152D01*
X52534762Y-142088152D02*
X52582381Y-142183390D01*
X52582381Y-142183390D02*
X52630000Y-142231009D01*
X52630000Y-142231009D02*
X52725238Y-142278628D01*
X52725238Y-142278628D02*
X53106190Y-142278628D01*
X52106190Y-142754819D02*
X52106190Y-141754819D01*
X51677619Y-142754819D02*
X51677619Y-142231009D01*
X51677619Y-142231009D02*
X51725238Y-142135771D01*
X51725238Y-142135771D02*
X51820476Y-142088152D01*
X51820476Y-142088152D02*
X51963333Y-142088152D01*
X51963333Y-142088152D02*
X52058571Y-142135771D01*
X52058571Y-142135771D02*
X52106190Y-142183390D01*
X51296666Y-142088152D02*
X51058571Y-142754819D01*
X50820476Y-142088152D02*
X51058571Y-142754819D01*
X51058571Y-142754819D02*
X51153809Y-142992914D01*
X51153809Y-142992914D02*
X51201428Y-143040533D01*
X51201428Y-143040533D02*
X51296666Y-143088152D01*
X50487142Y-142707200D02*
X50391904Y-142754819D01*
X50391904Y-142754819D02*
X50201428Y-142754819D01*
X50201428Y-142754819D02*
X50106190Y-142707200D01*
X50106190Y-142707200D02*
X50058571Y-142611961D01*
X50058571Y-142611961D02*
X50058571Y-142564342D01*
X50058571Y-142564342D02*
X50106190Y-142469104D01*
X50106190Y-142469104D02*
X50201428Y-142421485D01*
X50201428Y-142421485D02*
X50344285Y-142421485D01*
X50344285Y-142421485D02*
X50439523Y-142373866D01*
X50439523Y-142373866D02*
X50487142Y-142278628D01*
X50487142Y-142278628D02*
X50487142Y-142231009D01*
X50487142Y-142231009D02*
X50439523Y-142135771D01*
X50439523Y-142135771D02*
X50344285Y-142088152D01*
X50344285Y-142088152D02*
X50201428Y-142088152D01*
X50201428Y-142088152D02*
X50106190Y-142135771D01*
X49725237Y-141754819D02*
X49106190Y-141754819D01*
X49106190Y-141754819D02*
X49439523Y-142135771D01*
X49439523Y-142135771D02*
X49296666Y-142135771D01*
X49296666Y-142135771D02*
X49201428Y-142183390D01*
X49201428Y-142183390D02*
X49153809Y-142231009D01*
X49153809Y-142231009D02*
X49106190Y-142326247D01*
X49106190Y-142326247D02*
X49106190Y-142564342D01*
X49106190Y-142564342D02*
X49153809Y-142659580D01*
X49153809Y-142659580D02*
X49201428Y-142707200D01*
X49201428Y-142707200D02*
X49296666Y-142754819D01*
X49296666Y-142754819D02*
X49582380Y-142754819D01*
X49582380Y-142754819D02*
X49677618Y-142707200D01*
X49677618Y-142707200D02*
X49725237Y-142659580D01*
X52354762Y-148134819D02*
X52688095Y-147658628D01*
X52926190Y-148134819D02*
X52926190Y-147134819D01*
X52926190Y-147134819D02*
X52545238Y-147134819D01*
X52545238Y-147134819D02*
X52450000Y-147182438D01*
X52450000Y-147182438D02*
X52402381Y-147230057D01*
X52402381Y-147230057D02*
X52354762Y-147325295D01*
X52354762Y-147325295D02*
X52354762Y-147468152D01*
X52354762Y-147468152D02*
X52402381Y-147563390D01*
X52402381Y-147563390D02*
X52450000Y-147611009D01*
X52450000Y-147611009D02*
X52545238Y-147658628D01*
X52545238Y-147658628D02*
X52926190Y-147658628D01*
X51926190Y-148134819D02*
X51926190Y-147134819D01*
X51497619Y-148134819D02*
X51497619Y-147611009D01*
X51497619Y-147611009D02*
X51545238Y-147515771D01*
X51545238Y-147515771D02*
X51640476Y-147468152D01*
X51640476Y-147468152D02*
X51783333Y-147468152D01*
X51783333Y-147468152D02*
X51878571Y-147515771D01*
X51878571Y-147515771D02*
X51926190Y-147563390D01*
X51116666Y-147468152D02*
X50878571Y-148134819D01*
X50640476Y-147468152D02*
X50878571Y-148134819D01*
X50878571Y-148134819D02*
X50973809Y-148372914D01*
X50973809Y-148372914D02*
X51021428Y-148420533D01*
X51021428Y-148420533D02*
X51116666Y-148468152D01*
X50307142Y-148087200D02*
X50211904Y-148134819D01*
X50211904Y-148134819D02*
X50021428Y-148134819D01*
X50021428Y-148134819D02*
X49926190Y-148087200D01*
X49926190Y-148087200D02*
X49878571Y-147991961D01*
X49878571Y-147991961D02*
X49878571Y-147944342D01*
X49878571Y-147944342D02*
X49926190Y-147849104D01*
X49926190Y-147849104D02*
X50021428Y-147801485D01*
X50021428Y-147801485D02*
X50164285Y-147801485D01*
X50164285Y-147801485D02*
X50259523Y-147753866D01*
X50259523Y-147753866D02*
X50307142Y-147658628D01*
X50307142Y-147658628D02*
X50307142Y-147611009D01*
X50307142Y-147611009D02*
X50259523Y-147515771D01*
X50259523Y-147515771D02*
X50164285Y-147468152D01*
X50164285Y-147468152D02*
X50021428Y-147468152D01*
X50021428Y-147468152D02*
X49926190Y-147515771D01*
X48926190Y-148134819D02*
X49497618Y-148134819D01*
X49211904Y-148134819D02*
X49211904Y-147134819D01*
X49211904Y-147134819D02*
X49307142Y-147277676D01*
X49307142Y-147277676D02*
X49402380Y-147372914D01*
X49402380Y-147372914D02*
X49497618Y-147420533D01*
X54969580Y-102243809D02*
X55017200Y-102196190D01*
X55017200Y-102196190D02*
X55064819Y-102053333D01*
X55064819Y-102053333D02*
X55064819Y-101958095D01*
X55064819Y-101958095D02*
X55017200Y-101815238D01*
X55017200Y-101815238D02*
X54921961Y-101720000D01*
X54921961Y-101720000D02*
X54826723Y-101672381D01*
X54826723Y-101672381D02*
X54636247Y-101624762D01*
X54636247Y-101624762D02*
X54493390Y-101624762D01*
X54493390Y-101624762D02*
X54302914Y-101672381D01*
X54302914Y-101672381D02*
X54207676Y-101720000D01*
X54207676Y-101720000D02*
X54112438Y-101815238D01*
X54112438Y-101815238D02*
X54064819Y-101958095D01*
X54064819Y-101958095D02*
X54064819Y-102053333D01*
X54064819Y-102053333D02*
X54112438Y-102196190D01*
X54112438Y-102196190D02*
X54160057Y-102243809D01*
X55064819Y-102672381D02*
X54064819Y-102672381D01*
X54445771Y-102672381D02*
X54398152Y-102767619D01*
X54398152Y-102767619D02*
X54398152Y-102958095D01*
X54398152Y-102958095D02*
X54445771Y-103053333D01*
X54445771Y-103053333D02*
X54493390Y-103100952D01*
X54493390Y-103100952D02*
X54588628Y-103148571D01*
X54588628Y-103148571D02*
X54874342Y-103148571D01*
X54874342Y-103148571D02*
X54969580Y-103100952D01*
X54969580Y-103100952D02*
X55017200Y-103053333D01*
X55017200Y-103053333D02*
X55064819Y-102958095D01*
X55064819Y-102958095D02*
X55064819Y-102767619D01*
X55064819Y-102767619D02*
X55017200Y-102672381D01*
X54398152Y-103481905D02*
X55064819Y-103720000D01*
X54398152Y-103958095D02*
X55064819Y-103720000D01*
X55064819Y-103720000D02*
X55302914Y-103624762D01*
X55302914Y-103624762D02*
X55350533Y-103577143D01*
X55350533Y-103577143D02*
X55398152Y-103481905D01*
X55064819Y-104862857D02*
X55064819Y-104291429D01*
X55064819Y-104577143D02*
X54064819Y-104577143D01*
X54064819Y-104577143D02*
X54207676Y-104481905D01*
X54207676Y-104481905D02*
X54302914Y-104386667D01*
X54302914Y-104386667D02*
X54350533Y-104291429D01*
X54064819Y-105196191D02*
X54064819Y-105815238D01*
X54064819Y-105815238D02*
X54445771Y-105481905D01*
X54445771Y-105481905D02*
X54445771Y-105624762D01*
X54445771Y-105624762D02*
X54493390Y-105720000D01*
X54493390Y-105720000D02*
X54541009Y-105767619D01*
X54541009Y-105767619D02*
X54636247Y-105815238D01*
X54636247Y-105815238D02*
X54874342Y-105815238D01*
X54874342Y-105815238D02*
X54969580Y-105767619D01*
X54969580Y-105767619D02*
X55017200Y-105720000D01*
X55017200Y-105720000D02*
X55064819Y-105624762D01*
X55064819Y-105624762D02*
X55064819Y-105339048D01*
X55064819Y-105339048D02*
X55017200Y-105243810D01*
X55017200Y-105243810D02*
X54969580Y-105196191D01*
X52926190Y-98539580D02*
X52973809Y-98587200D01*
X52973809Y-98587200D02*
X53116666Y-98634819D01*
X53116666Y-98634819D02*
X53211904Y-98634819D01*
X53211904Y-98634819D02*
X53354761Y-98587200D01*
X53354761Y-98587200D02*
X53449999Y-98491961D01*
X53449999Y-98491961D02*
X53497618Y-98396723D01*
X53497618Y-98396723D02*
X53545237Y-98206247D01*
X53545237Y-98206247D02*
X53545237Y-98063390D01*
X53545237Y-98063390D02*
X53497618Y-97872914D01*
X53497618Y-97872914D02*
X53449999Y-97777676D01*
X53449999Y-97777676D02*
X53354761Y-97682438D01*
X53354761Y-97682438D02*
X53211904Y-97634819D01*
X53211904Y-97634819D02*
X53116666Y-97634819D01*
X53116666Y-97634819D02*
X52973809Y-97682438D01*
X52973809Y-97682438D02*
X52926190Y-97730057D01*
X52497618Y-98634819D02*
X52497618Y-97634819D01*
X52497618Y-98015771D02*
X52402380Y-97968152D01*
X52402380Y-97968152D02*
X52211904Y-97968152D01*
X52211904Y-97968152D02*
X52116666Y-98015771D01*
X52116666Y-98015771D02*
X52069047Y-98063390D01*
X52069047Y-98063390D02*
X52021428Y-98158628D01*
X52021428Y-98158628D02*
X52021428Y-98444342D01*
X52021428Y-98444342D02*
X52069047Y-98539580D01*
X52069047Y-98539580D02*
X52116666Y-98587200D01*
X52116666Y-98587200D02*
X52211904Y-98634819D01*
X52211904Y-98634819D02*
X52402380Y-98634819D01*
X52402380Y-98634819D02*
X52497618Y-98587200D01*
X51688094Y-97968152D02*
X51449999Y-98634819D01*
X51211904Y-97968152D02*
X51449999Y-98634819D01*
X51449999Y-98634819D02*
X51545237Y-98872914D01*
X51545237Y-98872914D02*
X51592856Y-98920533D01*
X51592856Y-98920533D02*
X51688094Y-98968152D01*
X50307142Y-98634819D02*
X50878570Y-98634819D01*
X50592856Y-98634819D02*
X50592856Y-97634819D01*
X50592856Y-97634819D02*
X50688094Y-97777676D01*
X50688094Y-97777676D02*
X50783332Y-97872914D01*
X50783332Y-97872914D02*
X50878570Y-97920533D01*
X49449999Y-97968152D02*
X49449999Y-98634819D01*
X49688094Y-97587200D02*
X49926189Y-98301485D01*
X49926189Y-98301485D02*
X49307142Y-98301485D01*
X68529580Y-91013809D02*
X68577200Y-90966190D01*
X68577200Y-90966190D02*
X68624819Y-90823333D01*
X68624819Y-90823333D02*
X68624819Y-90728095D01*
X68624819Y-90728095D02*
X68577200Y-90585238D01*
X68577200Y-90585238D02*
X68481961Y-90490000D01*
X68481961Y-90490000D02*
X68386723Y-90442381D01*
X68386723Y-90442381D02*
X68196247Y-90394762D01*
X68196247Y-90394762D02*
X68053390Y-90394762D01*
X68053390Y-90394762D02*
X67862914Y-90442381D01*
X67862914Y-90442381D02*
X67767676Y-90490000D01*
X67767676Y-90490000D02*
X67672438Y-90585238D01*
X67672438Y-90585238D02*
X67624819Y-90728095D01*
X67624819Y-90728095D02*
X67624819Y-90823333D01*
X67624819Y-90823333D02*
X67672438Y-90966190D01*
X67672438Y-90966190D02*
X67720057Y-91013809D01*
X68624819Y-91442381D02*
X67624819Y-91442381D01*
X68005771Y-91442381D02*
X67958152Y-91537619D01*
X67958152Y-91537619D02*
X67958152Y-91728095D01*
X67958152Y-91728095D02*
X68005771Y-91823333D01*
X68005771Y-91823333D02*
X68053390Y-91870952D01*
X68053390Y-91870952D02*
X68148628Y-91918571D01*
X68148628Y-91918571D02*
X68434342Y-91918571D01*
X68434342Y-91918571D02*
X68529580Y-91870952D01*
X68529580Y-91870952D02*
X68577200Y-91823333D01*
X68577200Y-91823333D02*
X68624819Y-91728095D01*
X68624819Y-91728095D02*
X68624819Y-91537619D01*
X68624819Y-91537619D02*
X68577200Y-91442381D01*
X67958152Y-92251905D02*
X68624819Y-92490000D01*
X67958152Y-92728095D02*
X68624819Y-92490000D01*
X68624819Y-92490000D02*
X68862914Y-92394762D01*
X68862914Y-92394762D02*
X68910533Y-92347143D01*
X68910533Y-92347143D02*
X68958152Y-92251905D01*
X68624819Y-93632857D02*
X68624819Y-93061429D01*
X68624819Y-93347143D02*
X67624819Y-93347143D01*
X67624819Y-93347143D02*
X67767676Y-93251905D01*
X67767676Y-93251905D02*
X67862914Y-93156667D01*
X67862914Y-93156667D02*
X67910533Y-93061429D01*
X68053390Y-94204286D02*
X68005771Y-94109048D01*
X68005771Y-94109048D02*
X67958152Y-94061429D01*
X67958152Y-94061429D02*
X67862914Y-94013810D01*
X67862914Y-94013810D02*
X67815295Y-94013810D01*
X67815295Y-94013810D02*
X67720057Y-94061429D01*
X67720057Y-94061429D02*
X67672438Y-94109048D01*
X67672438Y-94109048D02*
X67624819Y-94204286D01*
X67624819Y-94204286D02*
X67624819Y-94394762D01*
X67624819Y-94394762D02*
X67672438Y-94490000D01*
X67672438Y-94490000D02*
X67720057Y-94537619D01*
X67720057Y-94537619D02*
X67815295Y-94585238D01*
X67815295Y-94585238D02*
X67862914Y-94585238D01*
X67862914Y-94585238D02*
X67958152Y-94537619D01*
X67958152Y-94537619D02*
X68005771Y-94490000D01*
X68005771Y-94490000D02*
X68053390Y-94394762D01*
X68053390Y-94394762D02*
X68053390Y-94204286D01*
X68053390Y-94204286D02*
X68101009Y-94109048D01*
X68101009Y-94109048D02*
X68148628Y-94061429D01*
X68148628Y-94061429D02*
X68243866Y-94013810D01*
X68243866Y-94013810D02*
X68434342Y-94013810D01*
X68434342Y-94013810D02*
X68529580Y-94061429D01*
X68529580Y-94061429D02*
X68577200Y-94109048D01*
X68577200Y-94109048D02*
X68624819Y-94204286D01*
X68624819Y-94204286D02*
X68624819Y-94394762D01*
X68624819Y-94394762D02*
X68577200Y-94490000D01*
X68577200Y-94490000D02*
X68529580Y-94537619D01*
X68529580Y-94537619D02*
X68434342Y-94585238D01*
X68434342Y-94585238D02*
X68243866Y-94585238D01*
X68243866Y-94585238D02*
X68148628Y-94537619D01*
X68148628Y-94537619D02*
X68101009Y-94490000D01*
X68101009Y-94490000D02*
X68053390Y-94394762D01*
X90994819Y-69421905D02*
X89994819Y-69421905D01*
X89994819Y-69421905D02*
X89994819Y-69660000D01*
X89994819Y-69660000D02*
X90042438Y-69802857D01*
X90042438Y-69802857D02*
X90137676Y-69898095D01*
X90137676Y-69898095D02*
X90232914Y-69945714D01*
X90232914Y-69945714D02*
X90423390Y-69993333D01*
X90423390Y-69993333D02*
X90566247Y-69993333D01*
X90566247Y-69993333D02*
X90756723Y-69945714D01*
X90756723Y-69945714D02*
X90851961Y-69898095D01*
X90851961Y-69898095D02*
X90947200Y-69802857D01*
X90947200Y-69802857D02*
X90994819Y-69660000D01*
X90994819Y-69660000D02*
X90994819Y-69421905D01*
X89994819Y-70326667D02*
X89994819Y-70945714D01*
X89994819Y-70945714D02*
X90375771Y-70612381D01*
X90375771Y-70612381D02*
X90375771Y-70755238D01*
X90375771Y-70755238D02*
X90423390Y-70850476D01*
X90423390Y-70850476D02*
X90471009Y-70898095D01*
X90471009Y-70898095D02*
X90566247Y-70945714D01*
X90566247Y-70945714D02*
X90804342Y-70945714D01*
X90804342Y-70945714D02*
X90899580Y-70898095D01*
X90899580Y-70898095D02*
X90947200Y-70850476D01*
X90947200Y-70850476D02*
X90994819Y-70755238D01*
X90994819Y-70755238D02*
X90994819Y-70469524D01*
X90994819Y-70469524D02*
X90947200Y-70374286D01*
X90947200Y-70374286D02*
X90899580Y-70326667D01*
X74089580Y-91013809D02*
X74137200Y-90966190D01*
X74137200Y-90966190D02*
X74184819Y-90823333D01*
X74184819Y-90823333D02*
X74184819Y-90728095D01*
X74184819Y-90728095D02*
X74137200Y-90585238D01*
X74137200Y-90585238D02*
X74041961Y-90490000D01*
X74041961Y-90490000D02*
X73946723Y-90442381D01*
X73946723Y-90442381D02*
X73756247Y-90394762D01*
X73756247Y-90394762D02*
X73613390Y-90394762D01*
X73613390Y-90394762D02*
X73422914Y-90442381D01*
X73422914Y-90442381D02*
X73327676Y-90490000D01*
X73327676Y-90490000D02*
X73232438Y-90585238D01*
X73232438Y-90585238D02*
X73184819Y-90728095D01*
X73184819Y-90728095D02*
X73184819Y-90823333D01*
X73184819Y-90823333D02*
X73232438Y-90966190D01*
X73232438Y-90966190D02*
X73280057Y-91013809D01*
X74184819Y-91442381D02*
X73184819Y-91442381D01*
X73565771Y-91442381D02*
X73518152Y-91537619D01*
X73518152Y-91537619D02*
X73518152Y-91728095D01*
X73518152Y-91728095D02*
X73565771Y-91823333D01*
X73565771Y-91823333D02*
X73613390Y-91870952D01*
X73613390Y-91870952D02*
X73708628Y-91918571D01*
X73708628Y-91918571D02*
X73994342Y-91918571D01*
X73994342Y-91918571D02*
X74089580Y-91870952D01*
X74089580Y-91870952D02*
X74137200Y-91823333D01*
X74137200Y-91823333D02*
X74184819Y-91728095D01*
X74184819Y-91728095D02*
X74184819Y-91537619D01*
X74184819Y-91537619D02*
X74137200Y-91442381D01*
X73518152Y-92251905D02*
X74184819Y-92490000D01*
X73518152Y-92728095D02*
X74184819Y-92490000D01*
X74184819Y-92490000D02*
X74422914Y-92394762D01*
X74422914Y-92394762D02*
X74470533Y-92347143D01*
X74470533Y-92347143D02*
X74518152Y-92251905D01*
X74184819Y-93632857D02*
X74184819Y-93061429D01*
X74184819Y-93347143D02*
X73184819Y-93347143D01*
X73184819Y-93347143D02*
X73327676Y-93251905D01*
X73327676Y-93251905D02*
X73422914Y-93156667D01*
X73422914Y-93156667D02*
X73470533Y-93061429D01*
X74184819Y-94109048D02*
X74184819Y-94299524D01*
X74184819Y-94299524D02*
X74137200Y-94394762D01*
X74137200Y-94394762D02*
X74089580Y-94442381D01*
X74089580Y-94442381D02*
X73946723Y-94537619D01*
X73946723Y-94537619D02*
X73756247Y-94585238D01*
X73756247Y-94585238D02*
X73375295Y-94585238D01*
X73375295Y-94585238D02*
X73280057Y-94537619D01*
X73280057Y-94537619D02*
X73232438Y-94490000D01*
X73232438Y-94490000D02*
X73184819Y-94394762D01*
X73184819Y-94394762D02*
X73184819Y-94204286D01*
X73184819Y-94204286D02*
X73232438Y-94109048D01*
X73232438Y-94109048D02*
X73280057Y-94061429D01*
X73280057Y-94061429D02*
X73375295Y-94013810D01*
X73375295Y-94013810D02*
X73613390Y-94013810D01*
X73613390Y-94013810D02*
X73708628Y-94061429D01*
X73708628Y-94061429D02*
X73756247Y-94109048D01*
X73756247Y-94109048D02*
X73803866Y-94204286D01*
X73803866Y-94204286D02*
X73803866Y-94394762D01*
X73803866Y-94394762D02*
X73756247Y-94490000D01*
X73756247Y-94490000D02*
X73708628Y-94537619D01*
X73708628Y-94537619D02*
X73613390Y-94585238D01*
D11*
%TO.C,D2*%
X84430000Y-112400000D02*
X84430000Y-106890000D01*
X87730000Y-112400000D02*
X84430000Y-112400000D01*
X87730000Y-112400000D02*
X87730000Y-106890000D01*
%TO.C,Cby15*%
X55401252Y-95635000D02*
X54878748Y-95635000D01*
X55401252Y-97105000D02*
X54878748Y-97105000D01*
%TO.C,Cby12*%
X57580000Y-103329420D02*
X57580000Y-103610580D01*
X58600000Y-103329420D02*
X58600000Y-103610580D01*
%TO.C,Rhys2*%
X47597742Y-145507500D02*
X48072258Y-145507500D01*
X47597742Y-146552500D02*
X48072258Y-146552500D01*
%TO.C,D1*%
X84300000Y-116912500D02*
X84300000Y-122422500D01*
X84300000Y-116912500D02*
X87600000Y-116912500D01*
X87600000Y-116912500D02*
X87600000Y-122422500D01*
%TO.C,D4*%
X86330000Y-84137500D02*
X86330000Y-78627500D01*
X89630000Y-84137500D02*
X86330000Y-84137500D01*
X89630000Y-84137500D02*
X89630000Y-78627500D01*
%TO.C,Rhys4*%
X48072258Y-143507500D02*
X47597742Y-143507500D01*
X48072258Y-144552500D02*
X47597742Y-144552500D01*
%TO.C,Rhys3*%
X51072258Y-143507500D02*
X50597742Y-143507500D01*
X51072258Y-144552500D02*
X50597742Y-144552500D01*
%TO.C,Rhys1*%
X51072258Y-145507500D02*
X50597742Y-145507500D01*
X51072258Y-146552500D02*
X50597742Y-146552500D01*
%TO.C,Cby13*%
X55555000Y-103458748D02*
X55555000Y-103981252D01*
X57025000Y-103458748D02*
X57025000Y-103981252D01*
%TO.C,Cby14*%
X55390580Y-97670000D02*
X55109420Y-97670000D01*
X55390580Y-98690000D02*
X55109420Y-98690000D01*
%TO.C,Cby18*%
X69790000Y-92740580D02*
X69790000Y-92459420D01*
X70810000Y-92740580D02*
X70810000Y-92459420D01*
%TO.C,D3*%
X86390000Y-73670000D02*
X86390000Y-68160000D01*
X89690000Y-73670000D02*
X86390000Y-73670000D01*
X89690000Y-73670000D02*
X89690000Y-68160000D01*
%TO.C,Cby19*%
X71315000Y-92751252D02*
X71315000Y-92228748D01*
X72785000Y-92751252D02*
X72785000Y-92228748D01*
%TD*%
M02*
